<?xml version="1.0" encoding="UTF-8" standalone="no"?>
<!-- Created with Inkscape (http://www.inkscape.org/) -->

<svg
   version="1.1"
   id="svg2"
   xml:space="preserve"
   width="221.21466"
   height="221.21866"
   viewBox="0 0 221.21466 221.21866"
   sodipodi:docname="logo_w.svg"
   inkscape:version="1.2.2 (732a01da63, 2022-12-09, custom)"
   inkscape:export-filename="../d1ee5bf1/icon_w.png"
   inkscape:export-xdpi="216.97989"
   inkscape:export-ydpi="216.97989"
   xmlns:inkscape="http://www.inkscape.org/namespaces/inkscape"
   xmlns:sodipodi="http://sodipodi.sourceforge.net/DTD/sodipodi-0.dtd"
   xmlns="http://www.w3.org/2000/svg"
   xmlns:svg="http://www.w3.org/2000/svg"><defs
     id="defs6"><clipPath
       clipPathUnits="userSpaceOnUse"
       id="clipPath16"><path
         d="M 0,279.467 H 331.733 V 0 H 0 Z"
         id="path14" /></clipPath></defs><sodipodi:namedview
     id="namedview4"
     pagecolor="#ffffff"
     bordercolor="#666666"
     borderopacity="1.0"
     inkscape:pageshadow="2"
     inkscape:pageopacity="0.0"
     inkscape:pagecheckerboard="0"
     showgrid="false"
     inkscape:zoom="1.656647"
     inkscape:cx="-56.137487"
     inkscape:cy="96.278809"
     inkscape:window-width="2560"
     inkscape:window-height="1403"
     inkscape:window-x="2560"
     inkscape:window-y="0"
     inkscape:window-maximized="1"
     inkscape:current-layer="g8"
     fit-margin-top="0"
     fit-margin-left="0"
     fit-margin-right="0"
     fit-margin-bottom="0"
     inkscape:snap-page="false"
     showguides="false"
     inkscape:showpageshadow="0"
     inkscape:deskcolor="#d1d1d1" /><g
     id="g8"
     inkscape:groupmode="layer"
     inkscape:label="Logo IEA gold"
     transform="matrix(1.3333333,0,0,-1.3333333,-104.3932,343.66039)"><rect
       style="fill:#000000;fill-opacity:1;stroke:#ffffff;stroke-width:3;stroke-linejoin:miter;stroke-miterlimit:0;stroke-dasharray:none;stroke-opacity:1"
       id="rect933"
       width="163.5"
       height="163.5"
       x="79.794899"
       y="-256.2453"
       transform="scale(1,-1)" /><g
       id="g70259"
       transform="matrix(0.73137076,0,0,0.73137076,43.315878,37.841777)"
       style="fill:#757575;fill-opacity:0.27450982" /><g
       aria-label="IEA"
       transform="matrix(1.1681872,0,0,-1.1681872,-28.859057,-34.391602)"
       id="text5386"
       style="font-weight:bold;font-size:42px;line-height:1.25;font-family:'Bodoni Moda';-inkscape-font-specification:'Bodoni Moda Bold';stroke-width:0.442254;fill:#757575;fill-opacity:0.27450982" /><g
       id="g2831"
       transform="translate(0,6.524659)"
       style="fill:#ffffff"><g
         aria-label="PPIAS"
         transform="matrix(0.80976116,0,0,-0.80976116,17.256166,35.286114)"
         id="text3252"
         style="font-size:49.3973px;line-height:1.25;font-family:'Open Sans Condensed';-inkscape-font-specification:'Open Sans Condensed, ';fill:#ffffff;fill-opacity:1;stroke-width:0.926199"><g
           aria-label="Sandbox"
           id="text554"
           style="line-height:0.9;font-family:Petrona;-inkscape-font-specification:Petrona;stroke-width:0.857845;fill:#ffffff"><path
             d="m 114.59473,-205.46509 q -3.45781,0 -5.77949,-1.48192 -2.27227,-1.48192 -3.45781,-4.09998 -1.18553,-2.61805 -1.38312,-6.07587 l 4.93973,-1.33372 q 0.14819,2.12408 0.64216,4.09997 0.54337,1.9759 1.72891,3.26023 1.18553,1.23493 3.30962,1.23493 2.17348,0 3.26022,-1.18554 1.13614,-1.23493 1.13614,-3.50721 0,-2.71685 -1.23493,-4.34696 -1.23494,-1.67951 -3.11203,-3.35901 l -6.71804,-5.92768 q -1.97589,-1.72891 -2.91444,-3.7542 -0.93855,-2.07468 -0.93855,-5.08792 0,-4.39636 2.51927,-6.81682 2.51926,-2.42047 6.86622,-2.42047 2.37107,0 4.14937,0.64216 1.8277,0.59277 3.01324,1.8771 1.23493,1.28433 1.92649,3.26022 0.74096,1.9265 0.98795,4.54455 l -4.74214,1.28433 q -0.14819,-1.97589 -0.59277,-3.606 -0.44457,-1.67951 -1.58071,-2.66745 -1.08674,-1.03735 -3.16143,-1.03735 -2.07469,0 -3.26022,1.13614 -1.13614,1.08674 -1.13614,3.26022 0,1.8277 0.59277,3.01324 0.64216,1.18553 2.02529,2.42047 l 6.76743,5.92767 q 2.27227,1.97589 4.00118,4.74214 1.7289,2.71685 1.7289,6.47105 0,2.96384 -1.23493,5.13732 -1.23493,2.12408 -3.40841,3.26022 -2.12409,1.13614 -4.93973,1.13614 z"
             style="font-family:Oswald;-inkscape-font-specification:Oswald;fill:#ffffff"
             id="path825" /><path
             d="m 133.21749,-205.51449 q -1.67951,0 -2.96384,-0.93855 -1.28433,-0.98794 -2.02529,-2.46986 -0.74096,-1.53132 -0.74096,-3.21083 0,-2.66745 0.88915,-4.49515 0.88916,-1.8277 2.42047,-3.06263 1.58072,-1.28433 3.606,-2.22288 2.07469,-0.93855 4.34697,-1.8277 v -2.02529 q 0,-1.72891 -0.19759,-2.86505 -0.19759,-1.13613 -0.83976,-1.6795 -0.59276,-0.59277 -1.8277,-0.59277 -1.08674,0 -1.7783,0.49397 -0.64216,0.49397 -0.93855,1.43252 -0.29638,0.88915 -0.29638,2.12409 v 1.43252 l -5.23612,-0.19759 q 0.0988,-4.74214 2.17349,-6.96502 2.07468,-2.27228 6.42164,-2.27228 4.24817,0 6.02648,2.32168 1.7783,2.32167 1.7783,6.71803 v 13.04089 q 0,1.33372 0.0494,2.56866 0.0988,1.23493 0.19758,2.32167 0.1482,1.03734 0.24699,1.97589 h -4.84093 q -0.1482,-0.79035 -0.39518,-1.97589 -0.19759,-1.23493 -0.29639,-2.22288 -0.49397,1.67951 -1.92649,3.16143 -1.38313,1.43252 -3.85299,1.43252 z m 2.07469,-4.54455 q 0.79035,0 1.48192,-0.44458 0.69156,-0.44457 1.23493,-0.98794 0.54337,-0.59277 0.74096,-0.93855 v -8.10116 q -1.23494,0.69156 -2.32168,1.38313 -1.08674,0.69156 -1.92649,1.48191 -0.79036,0.74096 -1.28433,1.72891 -0.44458,0.93855 -0.44458,2.17348 0,1.72891 0.64217,2.71685 0.64216,0.98795 1.8771,0.98795 z"
             style="font-family:Oswald;-inkscape-font-specification:Oswald;fill:#ffffff"
             id="path827" /><path
             d="m 149.12336,-205.90967 v -28.55164 h 5.28551 v 2.81565 q 1.43252,-1.33373 3.16142,-2.27228 1.72891,-0.93855 3.8036,-0.93855 1.7289,0 2.61805,0.88916 0.93855,0.88915 1.28433,2.22287 0.39518,1.33373 0.39518,2.71686 v 23.11793 h -5.28551 v -21.58662 q 0,-1.53131 -0.44457,-2.37107 -0.44458,-0.83975 -1.8277,-0.83975 -0.88916,0 -1.8771,0.54337 -0.93855,0.49397 -1.8277,1.23493 v 23.01914 z"
             style="font-family:Oswald;-inkscape-font-specification:Oswald;fill:#ffffff"
             id="path829" /><path
             d="m 177.42797,-205.51449 q -3.60601,0 -5.38431,-2.61806 -1.7783,-2.66745 -1.7783,-8.99031 v -5.53249 q 0,-3.26022 0.54337,-6.02647 0.54337,-2.81565 2.02529,-4.49516 1.53131,-1.67951 4.44575,-1.67951 1.43253,0 2.61806,0.64217 1.18554,0.64216 2.12409,1.58071 v -13.28787 h 5.28551 v 40.01181 h -5.28551 v -1.8277 q -0.93855,0.98795 -2.07469,1.63011 -1.08674,0.59277 -2.51926,0.59277 z m 1.33372,-4.14937 q 0.74096,0 1.58072,-0.24699 0.83975,-0.29638 1.67951,-0.83975 v -18.72158 q -0.69157,-0.49397 -1.53132,-0.83975 -0.83976,-0.39518 -1.8277,-0.39518 -1.8277,0 -2.46987,1.7783 -0.64216,1.72891 -0.64216,4.19877 v 8.05176 q 0,1.97589 0.19759,3.606 0.24698,1.58072 0.93855,2.51927 0.69156,0.88915 2.07468,0.88915 z"
             style="font-family:Oswald;-inkscape-font-specification:Oswald;fill:#ffffff"
             id="path831" /><path
             d="m 202.86755,-205.51449 q -1.53132,0 -2.76625,-0.74096 -1.18554,-0.79036 -2.07469,-1.7289 v 2.07468 h -5.28551 v -40.01181 h 5.28551 v 13.73245 q 0.93855,-1.08674 2.22288,-1.8771 1.33373,-0.79036 3.16143,-0.79036 2.22288,0 3.50721,1.18554 1.33372,1.13614 1.97589,2.91444 0.64216,1.72891 0.83975,3.55661 0.19759,1.7783 0.19759,3.06263 v 6.91562 q 0,3.01324 -0.59276,5.73009 -0.59277,2.66745 -2.12409,4.34696 -1.53131,1.63011 -4.34696,1.63011 z m -1.08674,-4.14937 q 1.38312,0 1.97589,-0.98795 0.59277,-1.03734 0.74096,-2.76625 0.14819,-1.7289 0.14819,-3.80359 v -6.91562 q 0,-1.7783 -0.19759,-3.26022 -0.19759,-1.53132 -0.83975,-2.42047 -0.64217,-0.88915 -2.02529,-0.88915 -1.03734,0 -1.97589,0.44457 -0.88915,0.44458 -1.58072,0.98795 v 18.3264 q 0.69157,0.54337 1.63011,0.93855 0.98795,0.34578 2.12409,0.34578 z"
             style="font-family:Oswald;-inkscape-font-specification:Oswald;fill:#ffffff"
             id="path833" /><path
             d="m 222.57701,-205.51449 q -3.16143,0 -4.98913,-1.28433 -1.8277,-1.28433 -2.61806,-3.6554 -0.74096,-2.37107 -0.74096,-5.58189 v -8.29875 q 0,-3.21083 0.74096,-5.5819 0.79036,-2.37107 2.61806,-3.6554 1.8277,-1.28433 4.98913,-1.28433 3.16142,0 4.93973,1.28433 1.8277,1.28433 2.56866,3.6554 0.79035,2.37107 0.79035,5.5819 v 8.29875 q 0,3.21082 -0.79035,5.58189 -0.74096,2.37107 -2.56866,3.6554 -1.77831,1.28433 -4.93973,1.28433 z m 0,-3.90239 q 1.53131,0 2.12408,-0.88915 0.64217,-0.88915 0.74096,-2.32167 0.14819,-1.48192 0.14819,-3.06263 v -8.94091 q 0,-1.63012 -0.14819,-3.06264 -0.0988,-1.43252 -0.74096,-2.32167 -0.59277,-0.93855 -2.12408,-0.93855 -1.53132,0 -2.17348,0.93855 -0.64217,0.88915 -0.79036,2.32167 -0.0988,1.43252 -0.0988,3.06264 v 8.94091 q 0,1.58071 0.0988,3.06263 0.14819,1.43252 0.79036,2.32167 0.64216,0.88915 2.17348,0.88915 z"
             style="font-family:Oswald;-inkscape-font-specification:Oswald;fill:#ffffff"
             id="path835" /><path
             d="m 233.2961,-205.90967 6.42165,-15.01678 -6.27346,-13.53486 h 5.03853 l 4.19877,9.03971 3.70479,-9.03971 h 5.18672 l -6.52044,14.17703 6.61924,14.37461 h -5.03853 l -4.49515,-9.68187 -3.85299,9.68187 z"
             style="font-family:Oswald;-inkscape-font-specification:Oswald;fill:#ffffff"
             id="path837" /></g></g><path
         d="m 201.75371,131.32096 h -2.32369 a 13.486101,13.486101 0 0 1 -7.23059,7.84114 10.440852,10.440852 0 0 1 -2.89674,4.40436 l 2.29519,3.97532 a 1.5001224,1.5001224 0 0 1 -0.54905,2.05067 l -3.90032,2.25018 6.84656,11.85847 a 5.9239835,5.9239835 0 0 1 1.59613,-0.22202 6.0454934,6.0454934 0 0 1 1.56163,0.20702 5.9614866,5.9614866 0 0 1 3.6438,2.79623 l 5.25043,9.09374 a 1.5001224,1.5001224 0 0 1 -0.54905,2.04917 l -12.99106,7.50061 a 1.5001224,1.5001224 0 0 1 -2.04917,-0.54905 l -5.25042,-9.09374 a 6.0004897,6.0004897 0 0 1 1.00208,-7.26209 l -6.85106,-11.87797 -3.90032,2.25018 a 1.5001224,1.5001224 0 0 1 -2.05067,-0.55054 l -4.50036,-7.80064 a 10.54436,10.54436 0 0 1 -0.57605,-1.1851 7.437607,7.437607 0 0 1 -1.37411,-0.50404 17.936964,17.936964 0 0 1 -8.70671,2.26969 c -0.17262,0 -0.34053,-0.027 -0.51305,-0.0314 l -2.66871,15.84879 a 4.4898665,4.4898665 0 0 1 -3.6003,8.10066 l -1.16559,4.35035 a 16.502967,16.502967 0 0 1 -31.8791,-8.55069 l 1.16559,-4.35036 v 0 a 4.4913666,4.4913666 0 0 1 0.93008,-8.82672 l 7.20059,-19.33808 a 8.9527306,8.9527306 0 0 1 -5.33294,-6.70404 h -1.63963 a 4.50037,4.50037 0 0 1 0,-9.00074 h 1.89915 l 4.23335,-9.31576 -0.13201,-10.16633 a 1.5001224,1.5001224 0 0 1 1.50012,-1.51962 h 19.50159 a 1.5001224,1.5001224 0 0 1 1.06059,0.43954 l 4.06083,4.06083 h 16.75936 l 4.06084,-4.06083 a 1.5001224,1.5001224 0 0 1 1.06058,-0.43954 h 19.50159 a 1.5001224,1.5001224 0 0 1 1.50013,1.50012 v 10.18283 l 4.14183,9.31876 h 1.85866 a 4.50037,4.50037 0 0 1 0,9.00074 z m -9.44178,50.45511 10.39285,-6.00049 -1.50012,-2.59821 -10.39285,6.00049 z m -4.50036,-7.80063 1.50012,2.59821 10.39285,-6.00049 -1.50012,-2.59821 a 3.0002448,3.0002448 0 0 0 -4.09834,-1.09809 l -5.19792,3.00024 a 3.0002448,3.0002448 0 0 0 -1.09659,4.10434 z m 0.90007,-7.44661 2.59821,-1.50012 -6.75055,-11.69196 -2.59821,1.50013 z m -57.84922,21.33324 a 13.523604,13.523604 0 0 0 16.53735,-9.54678 l 1.1641,-4.35035 -26.08263,-6.98607 -1.1656,4.35035 a 13.519103,13.519103 0 0 0 9.54678,16.53285 z m -9.72529,-27.45524 a 1.5004971,1.5004971 0 1 0 -0.77857,2.89824 l 1.44762,0.38703 v 0 l 28.07629,7.52311 2.3522,0.63005 a 1.5003002,1.5003002 0 0 0 0.77706,-2.89823 z m 29.29139,-10.78438 a 1.5001224,1.5001224 0 1 0 1.06058,1.83765 1.5001224,1.5001224 0 0 0 -1.06058,-1.83765 z m -10.24734,3.46528 a 4.5003674,4.5003674 0 1 0 2.32969,-8.69321 4.5483713,4.5483713 0 0 0 -1.17159,-0.15001 4.5003674,4.5003674 0 0 0 -1.1581,8.85072 z m -1.55262,5.79348 a 1.5001224,1.5001224 0 1 0 -1.06059,-1.83615 1.5001224,1.5001224 0 0 0 1.06059,1.83615 z m 6.46852,-3.6468 a 1.5001224,1.5001224 0 1 0 2.04917,0.54904 1.5001224,1.5001224 0 0 0 -2.04917,-0.54904 z m -12.301,-3.30027 a 1.5001224,1.5001224 0 1 0 2.04917,0.54904 1.5001224,1.5001224 0 0 0 -2.04467,-0.54304 z m 0.24002,-6.98007 a 1.5001224,1.5001224 0 1 0 1.06059,1.83765 1.5001224,1.5001224 0 0 0 -1.04859,-1.83165 z m -2.10017,-9.17625 a 1.5001224,1.5001224 0 0 1 1.09509,0.56405 10.53386,10.53386 0 0 0 11.55094,3.42628 1.5001224,1.5001224 0 0 1 1.76564,0.66005 14.94572,14.94572 0 0 0 20.8082,5.12292 1.5001224,1.5001224 0 0 1 1.62013,0.0226 4.4673647,4.4673647 0 0 0 6.92007,-3.27477 1.5001224,1.5001224 0 0 1 2.5037,-0.94807 7.4796104,7.4796104 0 0 0 12.31151,-3.6753 1.5001224,1.5001224 0 0 1 0.92557,-1.03359 10.451353,10.451353 0 0 0 5.74847,-5.32093 h -10.93289 a 6.0004897,6.0004897 0 0 1 -6.00049,6.00049 5.9134826,5.9134826 0 0 1 -3.81181,-1.37862 10.473855,10.473855 0 0 1 -13.94064,-3.33327 7.2605925,7.2605925 0 0 1 -4.10733,-0.18601 9.7207933,9.7207933 0 0 1 -11.0109,2.70022 5.991489,5.991489 0 0 1 -10.63287,-3.80281 h -10.28484 a 5.9779879,5.9779879 0 0 0 5.47395,4.46286 z m 38.20211,-8.91223 a 1.5001224,1.5001224 0 1 0 1.06059,1.83765 1.5001224,1.5001224 0 0 0 -1.05909,-1.83165 z m -16.50134,0 a 1.5001224,1.5001224 0 1 0 1.06058,1.83765 1.5001224,1.5001224 0 0 0 -1.05908,-1.83165 z m 49.11701,-1.54512 h -21.06022 a 1.5001224,1.5001224 0 0 1 -1.1716,-0.56255 l -5.10041,-6.37552 a 1.4896216,1.4896216 0 0 0 -1.1701,-0.56254 h -24.00196 a 1.4896216,1.4896216 0 0 0 -1.17009,0.56254 l -5.10042,6.37552 a 1.5001224,1.5001224 0 0 1 -1.1716,0.56255 H 120.7471 a 1.5001224,1.5001224 0 0 0 0,3.00024 h 22.50183 a 1.4896216,1.4896216 0 0 0 1.1701,-0.56254 l 5.10041,-6.37552 a 1.5001224,1.5001224 0 0 1 1.1716,-0.56255 h 21.11872 a 1.5001224,1.5001224 0 0 1 1.1716,0.56255 l 5.10041,6.37552 a 1.4896216,1.4896216 0 0 0 1.1701,0.56254 h 22.50184 a 1.5001224,1.5001224 0 0 0 0,-3.00024 z"
         id="path622"
         style="stroke-width:1.50012;fill:#ffffff" /></g></g></svg>
